<svg version="1.1" xmlns="http://www.w3.org/2000/svg" viewBox="0 0 723 302" width="723" height="302">
  <!-- svg-source:excalidraw -->
  
  <defs>
    <style class="style-fonts">
      @font-face {
        font-family: "Virgil";
        src: url("https://file%2B.vscode-resource.vscode-cdn.net/Users/georgicaracu/.vscode/extensions/pomdtr.excalidraw-editor-3.5.1/public//dist/excalidraw-assets/Virgil.woff2");
      }
      @font-face {
        font-family: "Cascadia";
        src: url("https://file%2B.vscode-resource.vscode-cdn.net/Users/georgicaracu/.vscode/extensions/pomdtr.excalidraw-editor-3.5.1/public//dist/excalidraw-assets/Cascadia.woff2");
      }
    </style>
  </defs>
  <rect x="0" y="0" width="723" height="302" fill="#ffffff"></rect><g stroke-linecap="round" transform="translate(10 10) rotate(0 351.5 141)"><path d="M7.86 8.16 C7.86 8.16, 7.86 8.16, 7.86 8.16 M7.86 8.16 C7.86 8.16, 7.86 8.16, 7.86 8.16 M3.66 19.09 C8.89 14.65, 12.07 6.12, 18.1 2.48 M3.66 19.09 C8.37 13.79, 11.32 9.12, 18.1 2.48 M2.75 26.24 C9.12 18.38, 17.53 9.11, 24.4 1.33 M2.75 26.24 C8.16 19.91, 12.3 14.38, 24.4 1.33 M1.83 33.39 C10.23 25.41, 19.33 14.96, 30.7 0.18 M1.83 33.39 C7.6 25.63, 13.74 18.7, 30.7 0.18 M1.57 39.79 C13.7 28.12, 26.28 12.93, 34.37 2.05 M1.57 39.79 C8.97 30.77, 19.13 20.63, 34.37 2.05 M1.96 45.43 C17.6 30.22, 31.71 10.86, 39.36 2.41 M1.96 45.43 C15.01 29.96, 28.96 15.76, 39.36 2.41 M1.7 51.83 C19.66 31.61, 35.26 11.69, 45 2.02 M1.7 51.83 C13.2 38.56, 24.3 25.28, 45 2.02 M2.1 57.47 C14.34 42.9, 27.09 26.21, 49.99 2.38 M2.1 57.47 C14.96 42.34, 27.15 28.09, 49.99 2.38 M1.83 63.87 C22.89 40.86, 39.67 18.32, 55.63 1.98 M1.83 63.87 C14.98 47.8, 28.36 32.95, 55.63 1.98 M1.57 70.27 C12.24 56.04, 25.19 39.91, 60.62 2.34 M1.57 70.27 C22.73 47.75, 42.12 23.98, 60.62 2.34 M1.97 75.91 C18.94 53.83, 40.37 33.11, 66.26 1.95 M1.97 75.91 C18.09 55.28, 35.69 37.56, 66.26 1.95 M1.71 82.31 C24.14 54.05, 45.94 31.23, 71.25 2.31 M1.71 82.31 C15.65 64.54, 30.07 48.6, 71.25 2.31 M2.1 87.95 C23.93 60.43, 48.74 32.55, 76.89 1.91 M2.1 87.95 C23.6 62.03, 44.7 37.17, 76.89 1.91 M1.84 94.35 C32.35 60.08, 66.08 22.35, 81.88 2.27 M1.84 94.35 C19.88 72.35, 38.92 50.3, 81.88 2.27 M1.58 100.75 C34.41 61.5, 68.4 22.38, 87.52 1.88 M1.58 100.75 C36.32 60.98, 70.54 21.54, 87.52 1.88 M1.97 106.39 C22.7 83.16, 38.17 61.84, 92.51 2.24 M1.97 106.39 C23.33 79.92, 45.95 54.56, 92.51 2.24 M1.71 112.79 C36.07 73.35, 68.75 32.6, 98.15 1.85 M1.71 112.79 C39.23 70.31, 75.54 28.56, 98.15 1.85 M2.1 118.43 C27.68 91.39, 53.06 61.07, 103.14 2.21 M2.1 118.43 C27.29 92.21, 51.13 63.89, 103.14 2.21 M1.84 124.83 C24.66 97.12, 49.84 67.8, 108.78 1.81 M1.84 124.83 C34.19 87.24, 67.75 48.77, 108.78 1.81 M2.24 130.47 C26.29 102.62, 49.49 73.46, 113.77 2.17 M2.24 130.47 C28.48 102.58, 53.52 73.44, 113.77 2.17 M1.98 136.87 C45.11 88.52, 87.9 38.04, 119.41 1.78 M1.98 136.87 C46.29 86.06, 90.86 35.02, 119.41 1.78 M1.72 143.27 C36.67 106.04, 69.84 64.92, 124.4 2.14 M1.72 143.27 C31.25 110.53, 57.79 78.42, 124.4 2.14 M2.11 148.91 C35.68 107.25, 72.36 67.63, 130.04 1.74 M2.11 148.91 C38.54 107.73, 73.8 65.91, 130.04 1.74 M1.85 155.31 C32.88 120.4, 61.78 84, 135.03 2.1 M1.85 155.31 C34.63 117.01, 68.74 79.68, 135.03 2.1 M2.24 160.95 C29.4 130.1, 56.13 97.11, 140.67 1.71 M2.24 160.95 C30.23 129.28, 59.27 96.08, 140.67 1.71 M1.98 167.35 C48.8 112.92, 94.34 60.38, 145.66 2.07 M1.98 167.35 C47.66 114.22, 94.12 61, 145.66 2.07 M1.72 173.75 C52.77 113.64, 105.5 53.36, 150.65 2.43 M1.72 173.75 C37.61 130.66, 74.17 88.79, 150.65 2.43 M2.11 179.39 C39.45 138.21, 77.68 92.69, 156.29 2.03 M2.11 179.39 C42.47 133.44, 81.9 87.5, 156.29 2.03 M1.85 185.79 C44.35 136.54, 86.33 89.76, 161.28 2.39 M1.85 185.79 C34.85 148.85, 68.2 110.14, 161.28 2.39 M2.25 191.43 C57.65 125.85, 115.37 61.81, 166.92 2 M2.25 191.43 C49.16 136.42, 97.53 80.72, 166.92 2 M1.99 197.83 C40.26 151.49, 78.86 108.29, 171.91 2.36 M1.99 197.83 C69.64 119.68, 135.53 43.98, 171.91 2.36 M2.38 203.47 C40.37 161.14, 79.27 117.71, 177.55 1.96 M2.38 203.47 C47.73 152.41, 90.52 101.38, 177.55 1.96 M2.12 209.87 C55 148.08, 109.58 88.03, 182.54 2.32 M2.12 209.87 C37.54 167.05, 74.88 123.11, 182.54 2.32 M1.86 216.27 C56.68 150.86, 111.92 88.74, 188.18 1.93 M1.86 216.27 C69.97 139.3, 137.43 59.85, 188.18 1.93 M2.25 221.91 C48.34 171.34, 92.66 118.87, 193.17 2.29 M2.25 221.91 C70.41 143.9, 139.39 65.46, 193.17 2.29 M1.99 228.31 C51.91 169.38, 103.69 112.17, 198.81 1.9 M1.99 228.31 C56.35 167.28, 109.75 105.45, 198.81 1.9 M2.39 233.95 C82.77 146.17, 160.13 55.47, 203.8 2.26 M2.39 233.95 C53.67 174.71, 103.94 116.36, 203.8 2.26 M2.12 240.35 C54.06 182.19, 105.78 123.45, 209.44 1.86 M2.12 240.35 C44.65 188.92, 88.86 137.83, 209.44 1.86 M2.52 245.99 C52.69 187.69, 104.08 130.13, 214.43 2.22 M2.52 245.99 C47.34 192.63, 92.72 140.55, 214.43 2.22 M2.26 252.39 C53.3 193.64, 105.02 133.56, 220.07 1.83 M2.26 252.39 C50.47 195.6, 100.19 138.7, 220.07 1.83 M2 258.79 C92.36 156.33, 180.32 56.2, 225.06 2.19 M2 258.79 C59.77 192.78, 118.91 124.72, 225.06 2.19 M3.7 262.92 C60.76 200.03, 117.17 135.64, 230.7 1.79 M3.7 262.92 C83.41 170.45, 164.55 76.97, 230.7 1.79 M4.75 267.81 C60.37 201.19, 117.25 136.18, 235.69 2.15 M4.75 267.81 C75.84 186.59, 147.38 103.07, 235.69 2.15 M7.12 271.19 C88 177.2, 169.17 81.94, 241.33 1.76 M7.12 271.19 C67.26 201.84, 126.8 132.22, 241.33 1.76 M9.48 274.57 C84.02 192.3, 156.59 107.82, 246.32 2.12 M9.48 274.57 C102.66 166.09, 195.2 59.49, 246.32 2.12 M12.5 277.19 C74.02 202.72, 138.63 131.25, 251.96 1.72 M12.5 277.19 C99.58 173.75, 188.43 71.59, 251.96 1.72 M15.52 279.82 C78.18 209.02, 137.9 139.53, 256.95 2.08 M15.52 279.82 C71.62 216.66, 126.57 152.72, 256.95 2.08 M19.19 281.69 C107.78 179.61, 194.14 78.55, 262.59 1.69 M19.19 281.69 C105.68 181.24, 192.39 81.06, 262.59 1.69 M24.18 282.05 C93.24 203.3, 162.09 124.76, 267.58 2.05 M24.18 282.05 C85.94 211.99, 148.42 141.21, 267.58 2.05 M29.17 282.41 C89.03 215.06, 148.07 144.78, 272.56 2.41 M29.17 282.41 C94.63 205.46, 161.31 129.04, 272.56 2.41 M33.5 283.52 C122.82 180.41, 210.68 79.41, 278.21 2.01 M33.5 283.52 C129.05 172.89, 226.9 60.45, 278.21 2.01 M39.14 283.13 C131.66 177.33, 223.13 72.05, 283.19 2.37 M39.14 283.13 C132.87 176.36, 225.33 69.68, 283.19 2.37 M44.13 283.49 C92.74 227.99, 142.63 170.94, 288.84 1.98 M44.13 283.49 C117.92 197.04, 192.48 111.84, 288.84 1.98 M49.77 283.09 C113.51 207.87, 178.26 133.64, 293.82 2.34 M49.77 283.09 C134.02 186.83, 216.1 91.64, 293.82 2.34 M54.76 283.45 C116.37 212.71, 179.29 140.97, 299.47 1.94 M54.76 283.45 C131.06 197.79, 205.53 110.77, 299.47 1.94 M60.4 283.06 C123.31 210.34, 186.73 137.86, 304.45 2.3 M60.4 283.06 C113.8 220.93, 168.04 159.15, 304.45 2.3 M65.39 283.42 C144.51 193.54, 222.95 104, 310.1 1.91 M65.39 283.42 C126.34 210.4, 188.14 139.13, 310.1 1.91 M71.03 283.02 C158.92 180.44, 245.83 78.24, 315.08 2.27 M71.03 283.02 C141.72 201.7, 213.28 119.21, 315.08 2.27 M76.02 283.38 C162.67 186.21, 247.73 86.29, 320.73 1.88 M76.02 283.38 C145.14 200.36, 217.01 119.36, 320.73 1.88 M81 283.74 C135.23 223.39, 187.48 160.53, 325.71 2.24 M81 283.74 C135.11 219.49, 190.52 155.38, 325.71 2.24 M86.65 283.35 C144.55 218.15, 201.76 151.77, 331.36 1.84 M86.65 283.35 C151.7 208.33, 216.01 134.53, 331.36 1.84 M91.63 283.71 C171.66 191.78, 250.8 101.67, 336.34 2.2 M91.63 283.71 C166.03 197.33, 240.6 111.96, 336.34 2.2 M97.28 283.31 C149.97 223.23, 202.9 162.14, 341.99 1.81 M97.28 283.31 C177.34 189.01, 258.22 94.54, 341.99 1.81 M102.26 283.67 C152.49 226.09, 206.08 167.82, 346.97 2.17 M102.26 283.67 C198.85 171.87, 295.88 59.72, 346.97 2.17 M107.91 283.28 C177.98 201.15, 247.58 119.87, 352.62 1.77 M107.91 283.28 C193.68 186.54, 277.63 90.3, 352.62 1.77 M112.89 283.64 C179.67 207, 247.08 130.86, 357.6 2.13 M112.89 283.64 C210.79 171.93, 306.44 61.55, 357.6 2.13 M118.54 283.24 C209.53 175.26, 302.31 69.71, 363.25 1.74 M118.54 283.24 C182.35 207.8, 247.77 132.33, 363.25 1.74 M123.52 283.6 C207.31 186.65, 292.9 91.09, 368.23 2.1 M123.52 283.6 C213.66 177.28, 304.83 72.27, 368.23 2.1 M129.17 283.21 C222.55 178.46, 313.91 72.31, 373.88 1.7 M129.17 283.21 C218.02 182.52, 303.88 82.73, 373.88 1.7 M134.15 283.57 C210 198.87, 283.59 113.59, 378.86 2.06 M134.15 283.57 C190.86 219.16, 248.81 152.99, 378.86 2.06 M139.8 283.18 C213.79 198.73, 289.9 110.89, 383.85 2.42 M139.8 283.18 C232.39 177.1, 324.33 70.06, 383.85 2.42 M144.78 283.54 C214.69 204.97, 283 125.16, 389.49 2.03 M144.78 283.54 C207.28 210.78, 270.81 137.58, 389.49 2.03 M150.43 283.14 C234.41 183.65, 320.17 85.04, 394.48 2.39 M150.43 283.14 C200.91 225.38, 250.63 168.23, 394.48 2.39 M155.41 283.5 C215.45 213.22, 276.03 143.81, 400.12 1.99 M155.41 283.5 C241.9 184.02, 328.18 86.02, 400.12 1.99 M161.06 283.11 C218.11 218.42, 274.35 153.9, 405.11 2.35 M161.06 283.11 C211.68 225.06, 260.8 167.92, 405.11 2.35 M166.04 283.47 C223.98 219.47, 277.93 155.89, 410.75 1.96 M166.04 283.47 C263.47 171.86, 360.84 59.13, 410.75 1.96 M171.69 283.07 C220.73 227.65, 271.84 168.29, 415.74 2.32 M171.69 283.07 C234.22 214.21, 295.07 143.68, 415.74 2.32 M176.67 283.43 C247.46 202.34, 319.47 120.94, 421.38 1.93 M176.67 283.43 C251.46 197.13, 328.12 108.53, 421.38 1.93 M182.32 283.04 C257.21 196.63, 333.03 109.62, 426.37 2.29 M182.32 283.04 C263.19 190.58, 342.16 98.93, 426.37 2.29 M187.3 283.4 C273.02 185.47, 355.52 87.88, 432.01 1.89 M187.3 283.4 C284.29 172.44, 379.07 62.75, 432.01 1.89 M192.29 283.76 C264.24 201.35, 334.79 122.01, 437 2.25 M192.29 283.76 C266.9 196.93, 341.61 109.72, 437 2.25 M197.93 283.36 C285.26 183.64, 373.16 82.35, 442.64 1.86 M197.93 283.36 C283.89 187.06, 366.84 89.51, 442.64 1.86 M202.92 283.72 C268.74 207.93, 331.98 134.46, 447.63 2.22 M202.92 283.72 C297.16 176.69, 390.46 70.12, 447.63 2.22 M208.56 283.33 C291.76 187.85, 375.56 94.22, 453.27 1.82 M208.56 283.33 C277.78 205.09, 345.81 125.8, 453.27 1.82 M213.55 283.69 C283.55 201.13, 354.26 119.8, 458.26 2.18 M213.55 283.69 C269.1 217.67, 326.38 152.15, 458.26 2.18 M219.19 283.29 C304.92 185.7, 388.31 88.22, 463.9 1.79 M219.19 283.29 C297.8 193.64, 374.82 104.05, 463.9 1.79 M224.18 283.65 C316.06 176.33, 406.5 73.01, 468.89 2.15 M224.18 283.65 C287.77 210.91, 349.4 140.12, 468.89 2.15 M229.82 283.26 C295.52 204.93, 361.55 128.21, 474.53 1.75 M229.82 283.26 C318.37 179.05, 408.94 75.59, 474.53 1.75 M234.81 283.62 C299.69 208.64, 363.83 133.91, 479.52 2.11 M234.81 283.62 C315.73 187.36, 398.52 93.83, 479.52 2.11 M240.46 283.23 C307.2 206.49, 375.05 128.31, 485.17 1.72 M240.46 283.23 C326.32 184.68, 412.12 86.08, 485.17 1.72 M245.44 283.59 C307.79 210.48, 371.42 136.71, 490.15 2.08 M245.44 283.59 C311.71 204.61, 379.71 126.37, 490.15 2.08 M251.09 283.19 C337.08 185.46, 423.37 86.02, 495.8 1.68 M251.09 283.19 C347.7 172.22, 445.25 60.48, 495.8 1.68 M256.07 283.55 C305.04 228.4, 356.12 171.2, 500.78 2.04 M256.07 283.55 C346.97 176.74, 440.1 71.21, 500.78 2.04 M261.72 283.16 C344.3 187.13, 426.58 91.15, 505.77 2.4 M261.72 283.16 C316.09 221.47, 371.44 159.26, 505.77 2.4 M266.7 283.52 C338.75 202.04, 408.63 121.38, 511.41 2.01 M266.7 283.52 C323.66 217.05, 381.66 150.47, 511.41 2.01 M272.35 283.12 C352.76 188.39, 436.76 96.1, 516.4 2.37 M272.35 283.12 C360.78 179.45, 449.53 76.9, 516.4 2.37 M277.33 283.48 C341.68 210.05, 402.77 139.03, 522.04 1.98 M277.33 283.48 C365.93 181.52, 454.86 79, 522.04 1.98 M282.98 283.09 C347 204.29, 415.03 129.1, 527.03 2.34 M282.98 283.09 C368.08 183.23, 454.29 84.24, 527.03 2.34 M287.96 283.45 C381.6 174.4, 475.09 66.54, 532.67 1.94 M287.96 283.45 C377.4 180.39, 467.15 76.56, 532.67 1.94 M293.61 283.05 C373.26 188.74, 455.71 93.85, 537.66 2.3 M293.61 283.05 C373.05 190.95, 452.44 100.49, 537.66 2.3 M298.59 283.41 C374.58 192.52, 454.27 104.39, 543.3 1.91 M298.59 283.41 C386.06 181.65, 474.02 79.64, 543.3 1.91 M304.24 283.02 C391.34 184.74, 476.83 85.89, 548.29 2.27 M304.24 283.02 C356.9 222.28, 409.4 162.29, 548.29 2.27 M309.22 283.38 C363.8 221.47, 416.49 157.51, 553.93 1.87 M309.22 283.38 C397.36 184.13, 484.16 83.44, 553.93 1.87 M314.21 283.74 C365.3 226.52, 415.95 167.71, 558.92 2.23 M314.21 283.74 C403.6 179.65, 492.58 77.41, 558.92 2.23 M319.85 283.34 C375.33 217.52, 433.5 151.12, 564.56 1.84 M319.85 283.34 C386.13 206.09, 452.51 129.26, 564.56 1.84 M324.84 283.7 C379.91 222.45, 433.83 159.46, 569.55 2.2 M324.84 283.7 C405.9 191.73, 486.02 100.19, 569.55 2.2 M330.48 283.31 C384.29 221.25, 438.46 159.91, 575.19 1.8 M330.48 283.31 C411.73 189.46, 493.33 94.89, 575.19 1.8 M335.47 283.67 C422.16 181.19, 511.46 78.99, 580.18 2.16 M335.47 283.67 C395.98 215.85, 454.38 148.9, 580.18 2.16 M341.11 283.27 C391.16 226.47, 439.28 169.18, 585.82 1.77 M341.11 283.27 C405.19 208.75, 470.37 134.88, 585.82 1.77 M346.1 283.63 C408.99 210.63, 471.91 139.35, 590.81 2.13 M346.1 283.63 C409.37 209.47, 474.28 134.54, 590.81 2.13 M351.74 283.24 C439.01 185.37, 523.66 87.42, 596.45 1.73 M351.74 283.24 C422.9 202.32, 494.01 120.46, 596.45 1.73 M356.73 283.6 C445.2 182.13, 532.1 82.35, 601.44 2.09 M356.73 283.6 C439.43 186.8, 524 89.44, 601.44 2.09 M362.37 283.21 C453.36 181.79, 542.26 76.22, 607.08 1.7 M362.37 283.21 C444.12 186.57, 527.91 91.21, 607.08 1.7 M367.36 283.57 C463.29 174.49, 560.93 63.12, 612.07 2.06 M367.36 283.57 C428.96 214.87, 489.82 144.97, 612.07 2.06 M373 283.17 C450.02 191.86, 531.75 98.11, 617.06 2.42 M373 283.17 C434.55 211.36, 496.47 140.94, 617.06 2.42 M377.99 283.53 C451.46 196.99, 527.53 111.23, 622.7 2.02 M377.99 283.53 C458.12 192.92, 537.5 100.48, 622.7 2.02 M383.63 283.14 C439.64 218.88, 495.41 153.36, 627.69 2.38 M383.63 283.14 C473.09 182.06, 561.43 79.85, 627.69 2.38 M388.62 283.5 C463.03 197.04, 539.98 109, 633.33 1.99 M388.62 283.5 C474.66 186.7, 559.79 87.99, 633.33 1.99 M394.26 283.1 C451.49 218.45, 508.62 152.86, 638.32 2.35 M394.26 283.1 C470.28 194.39, 547.24 106.82, 638.32 2.35 M399.25 283.46 C464.61 210.6, 529.58 135.25, 643.96 1.96 M399.25 283.46 C466.99 203.26, 536.78 123.03, 643.96 1.96 M404.89 283.07 C460.4 216.16, 517.31 151.96, 648.95 2.32 M404.89 283.07 C464.32 214.57, 523.51 145.42, 648.95 2.32 M409.88 283.43 C470.7 213.38, 534.74 140.28, 654.59 1.92 M409.88 283.43 C481.47 201.15, 553.13 117.28, 654.59 1.92 M415.52 283.03 C482.72 205.33, 553.36 126.4, 659.58 2.28 M415.52 283.03 C465.07 226.95, 514.62 170.09, 659.58 2.28 M420.51 283.39 C480.15 217.14, 539.48 149.87, 665.22 1.89 M420.51 283.39 C508 182.6, 595.62 80.93, 665.22 1.89 M425.5 283.75 C516.2 178.89, 609.23 71.71, 671.52 0.74 M425.5 283.75 C507.78 186.97, 591.86 91.06, 671.52 0.74 M431.14 283.36 C480.58 227.09, 531.89 168.7, 676.51 1.1 M431.14 283.36 C492.03 212.53, 555.49 140.24, 676.51 1.1 M436.13 283.72 C495.8 212.39, 558.63 141.52, 680.84 2.21 M436.13 283.72 C511.58 198.47, 587.3 111.21, 680.84 2.21 M441.77 283.32 C537.14 173.34, 633.55 63.84, 685.82 2.57 M441.77 283.32 C528.23 182.61, 615.61 82.52, 685.82 2.57 M446.76 283.68 C542.64 173.23, 640.8 59.33, 689.5 4.44 M446.76 283.68 C511.36 210.93, 575.03 138.78, 689.5 4.44 M452.4 283.29 C521.77 203.48, 590.41 122.53, 693.17 6.31 M452.4 283.29 C512.41 214.63, 571.46 145.39, 693.17 6.31 M457.39 283.65 C517.42 214.12, 579.87 144.76, 695.54 9.69 M457.39 283.65 C520.83 212.43, 583.27 140.46, 695.54 9.69 M463.03 283.26 C518.66 220.28, 571.97 156.92, 698.56 12.31 M463.03 283.26 C539.39 196.11, 613.58 110.41, 698.56 12.31 M468.02 283.62 C516.45 228.97, 566.24 173.23, 701.57 14.94 M468.02 283.62 C532.42 210.8, 595.89 139.08, 701.57 14.94 M473.66 283.22 C562.95 179.91, 654.17 76.05, 702.63 19.83 M473.66 283.22 C555.88 189.14, 636.75 97.1, 702.63 19.83 M478.65 283.58 C563.42 186.12, 646.73 87.91, 703.68 24.72 M478.65 283.58 C558.43 193.3, 636.83 102.03, 703.68 24.72 M484.29 283.19 C529.72 230.57, 578.48 176.16, 704.07 30.36 M484.29 283.19 C558.36 197.47, 634.19 110.17, 704.07 30.36 M489.28 283.55 C541.67 224.59, 594.66 165.91, 705.78 34.49 M489.28 283.55 C550.1 216.35, 609.04 148.33, 705.78 34.49 M494.92 283.15 C569.65 195.34, 647.25 107.94, 705.52 40.89 M494.92 283.15 C555.8 214.63, 616.25 145.79, 705.52 40.89 M499.91 283.51 C545.94 230.39, 593.64 176.34, 705.91 46.53 M499.91 283.51 C563.87 209.37, 626.98 136.6, 705.91 46.53 M505.55 283.12 C577.05 201.18, 646.82 121.86, 705.65 52.93 M505.55 283.12 C582.82 195.58, 657.95 108.42, 705.65 52.93 M510.54 283.48 C567.07 216.99, 625.59 150.75, 706.04 58.57 M510.54 283.48 C555.4 229.76, 599.43 178.29, 706.04 58.57 M516.18 283.08 C584.52 203.61, 651.85 122.36, 705.78 64.97 M516.18 283.08 C558.27 234.12, 601.69 184.8, 705.78 64.97 M521.17 283.44 C590.9 204.34, 662.45 122.52, 705.52 71.37 M521.17 283.44 C580.32 215.85, 639.09 148.1, 705.52 71.37 M526.81 283.05 C564.96 240.81, 602.8 196.72, 705.92 77.01 M526.81 283.05 C565.8 236.67, 605.15 191.02, 705.92 77.01 M531.8 283.41 C589.98 216.57, 644.32 151.27, 705.65 83.41 M531.8 283.41 C592.58 211.92, 653.99 141.41, 705.65 83.41 M536.79 283.77 C596.34 218.38, 651.14 152.05, 706.05 89.05 M536.79 283.77 C602.26 208.18, 666.78 134.17, 706.05 89.05 M542.43 283.37 C600.67 217.13, 656.85 151.33, 705.79 95.45 M542.43 283.37 C576.48 241.81, 611.85 201.44, 705.79 95.45 M547.42 283.73 C592.66 231.91, 636.9 183.4, 705.53 101.85 M547.42 283.73 C599.27 226.62, 650.6 167, 705.53 101.85 M553.06 283.34 C585.62 243.32, 620.4 204.86, 705.92 107.49 M553.06 283.34 C599.15 229.35, 644.41 176.22, 705.92 107.49 M558.05 283.7 C614.43 218.5, 669.76 156.39, 705.66 113.89 M558.05 283.7 C594.41 240.44, 630.88 198.81, 705.66 113.89 M563.69 283.31 C594.36 246.96, 628.1 208.95, 706.05 119.53 M563.69 283.31 C605.72 235.11, 646.84 187.51, 706.05 119.53 M568.68 283.67 C602.4 245.67, 631.52 208.93, 705.79 125.93 M568.68 283.67 C617.76 224, 668.88 165.17, 705.79 125.93 M574.32 283.27 C605.64 249.85, 634.32 216.23, 705.53 132.33 M574.32 283.27 C623.93 225.11, 673.38 167.32, 705.53 132.33 M579.31 283.63 C615.47 240.15, 655.66 193.64, 705.93 137.97 M579.31 283.63 C620.07 237.12, 661.44 189.98, 705.93 137.97 M584.95 283.24 C613.17 253.07, 638.83 225.18, 705.66 144.37 M584.95 283.24 C616.36 244.49, 648.29 207.24, 705.66 144.37 M589.94 283.6 C622.46 243.82, 655.51 206.98, 706.06 150.01 M589.94 283.6 C628.17 238.86, 666.47 196.78, 706.06 150.01 M595.58 283.2 C633.05 240.25, 674.28 196.03, 705.8 156.41 M595.58 283.2 C635.01 238.43, 673.89 192.79, 705.8 156.41 M600.57 283.56 C633.71 246.75, 666.08 206.83, 705.54 162.81 M600.57 283.56 C641.92 236.21, 683.52 188.98, 705.54 162.81 M606.21 283.17 C635.61 247.06, 666.21 213.99, 705.93 168.45 M606.21 283.17 C640.94 244.71, 674.55 204.09, 705.93 168.45 M611.2 283.53 C646.53 242.29, 683.71 203.33, 705.67 174.85 M611.2 283.53 C646.24 243.44, 681.12 202.18, 705.67 174.85 M616.84 283.13 C644.85 251.66, 673.57 217.76, 706.06 180.49 M616.84 283.13 C637.09 258.9, 659 234.59, 706.06 180.49 M621.83 283.49 C647.53 252.82, 675.1 220.57, 705.8 186.89 M621.83 283.49 C645.51 257.26, 667.9 230.28, 705.8 186.89 M627.47 283.1 C658.08 249.92, 688.42 212.5, 705.54 193.29 M627.47 283.1 C655.9 252.74, 681.89 220.03, 705.54 193.29 M632.46 283.46 C649.15 262.99, 667.9 245.95, 705.93 198.93 M632.46 283.46 C659.31 253.57, 684.4 223.52, 705.93 198.93 M638.1 283.06 C654.93 264.56, 671.33 246.37, 705.67 205.33 M638.1 283.06 C657.52 261.01, 676.77 238.95, 705.67 205.33 M643.09 283.42 C658.94 267.55, 670.34 251.65, 706.07 210.97 M643.09 283.42 C658.62 264.34, 674.13 245.88, 706.07 210.97 M648.73 283.03 C668.29 260.81, 691.36 234.84, 705.81 217.37 M648.73 283.03 C668.95 259.59, 689.06 235.57, 705.81 217.37 M653.72 283.39 C667.54 265.45, 685.98 247.81, 705.55 223.77 M653.72 283.39 C674.32 260.99, 694.53 236.06, 705.55 223.77 M658.7 283.75 C673.93 262.16, 695.04 241.93, 705.94 229.41 M658.7 283.75 C678.54 262.03, 696.54 240.15, 705.94 229.41 M664.35 283.35 C676.51 268.83, 686.45 257.42, 705.68 235.81 M664.35 283.35 C674.65 271.99, 683.88 261.37, 705.68 235.81 M669.33 283.71 C678.43 274.15, 689.13 264.27, 706.07 241.45 M669.33 283.71 C682.24 269.84, 692.16 255.8, 706.07 241.45 M673.66 284.83 C681.64 277.59, 685.97 272.62, 703.84 250.11 M673.66 284.83 C680.74 276.5, 686.02 269.03, 703.84 250.11 M679.96 283.68 C685.94 275.78, 693.79 270.52, 702.27 258.02 M679.96 283.68 C688.05 275.3, 696.49 265.19, 702.27 258.02 M690.86 277.25 C692.05 273.05, 694.73 272.49, 702.01 264.42 M690.86 277.25 C695.81 271.38, 700.13 267.09, 702.01 264.42" stroke="#b2f2bb" stroke-width="0.5" fill="none"></path><path d="M32 0 M32 0 C282.8 0.32, 533.21 -0.07, 671 0 M32 0 C168.22 -0.19, 304.23 -0.62, 671 0 M671 0 C691.99 0.67, 703.01 11.52, 703 32 M671 0 C693.47 -1.19, 701.25 8.88, 703 32 M703 32 C700.9 82.76, 700.42 137.7, 703 250 M703 32 C701.25 94.04, 702.13 156.7, 703 250 M703 250 C702.97 271.64, 692.04 283.01, 671 282 M703 250 C702.18 272.26, 690.29 282.31, 671 282 M671 282 C420.31 280.7, 168.85 280.6, 32 282 M671 282 C484.94 284.17, 299.11 284.68, 32 282 M32 282 C11.69 281.63, 0.74 270.15, 0 250 M32 282 C12.07 281.36, -1.43 271.51, 0 250 M0 250 C-2.13 196.62, -1.6 144.2, 0 32 M0 250 C1.23 167.78, 1.44 86.04, 0 32 M0 32 C1.29 10.27, 9 0.77, 32 0 M0 32 C-0.99 11.36, 12.86 0.73, 32 0" stroke="#1e1e1e" stroke-width="1" fill="none"></path></g><g transform="translate(279.46875 134.19999999999993) rotate(0 82.03125 16.80000000000001)"><text x="82.03125" y="0" font-family="Cascadia, Segoe UI Emoji" font-size="28px" fill="#1e1e1e" text-anchor="middle" style="white-space: pre;" direction="ltr" dominant-baseline="text-before-edge">Questions?</text></g></svg>