<svg version="1.1" viewBox="0.0 0.0 960.0 540.0" fill="none" stroke="none" stroke-linecap="square" stroke-miterlimit="10" xmlns:xlink="http://www.w3.org/1999/xlink" xmlns="http://www.w3.org/2000/svg"><clipPath id="gaeb2c410ad_0_68.0"><path d="m0 0l960.0 0l0 540.0l-960.0 0l0 -540.0z" clip-rule="nonzero"/></clipPath><g clip-path="url(#gaeb2c410ad_0_68.0)"><path fill="#1a9988" d="m0 0l960.0 0l0 540.0l-960.0 0z" fill-rule="evenodd"/><path fill="#ffffff" d="m126.33025 129.87735l0 -4.8111496l39.145332 0l0 4.8111496z" fill-rule="evenodd"/><path fill="#ffffff" d="m87.18024 129.87735l0 -4.8111496l39.476326 0l0 4.8111496z" fill-rule="evenodd"/><path fill="#000000" fill-opacity="0.0" d="m76.58268 138.83989l807.1811 0l0 159.43309l-807.1811 0z" fill-rule="evenodd"/><path fill="#ffffff" d="m98.39518 159.84177l6.71875 0l12.53125 34.078125l-6.8125 0l-3.171875 -8.5l-11.90625 0l-3.109375 8.5l-6.828125 0l12.578125 -34.078125zm8.0625 20.921875l-4.703125 -14.0625l-4.890625 14.0625l9.59375 0zm54.194084 -12.0l6.09375 0l-10.5 25.15625l-5.375 0l-4.234375 -10.796875l-4.125 10.796875l-5.421875 0l-10.468742 -25.15625l6.0468674 0l7.484375 19.015625l2.9375 -8.21875l-4.375 -10.75l5.328125 0l2.59375 7.6875l2.640625 -7.6875l5.328125 0l-4.359375 10.75l2.96875 8.21875l7.4375 -19.015625zm19.876831 25.640625q-3.03125 0 -5.484375 -1.03125q-2.4375 -1.03125 -4.171875 -2.828125q-1.71875 -1.8125 -2.65625 -4.140625q-0.9375 -2.328125 -0.9375 -4.921875q0 -3.59375 1.609375 -6.5625q1.609375 -2.984375 4.609375 -4.78125q3.0 -1.796875 7.078125 -1.796875q4.125 0 7.046875 1.796875q2.9375 1.796875 4.5 4.75q1.5625 2.953125 1.5625 6.359375q0 0.578125 -0.0625 1.1875q-0.046875 0.59375 -0.09375 0.96875l-19.4375 0q0.203125 1.921875 1.125 3.359375q0.9375 1.4375 2.40625 2.1875q1.46875 0.75 3.140625 0.75q1.921875 0 3.625 -0.9375q1.703125 -0.9375 2.328125 -2.46875l5.515625 1.53125q-0.90625 1.921875 -2.609375 3.40625q-1.703125 1.484375 -4.015625 2.328125q-2.296875 0.84375 -5.078125 0.84375zm-6.578125 -15.078125l13.15625 0q-0.203125 -1.921875 -1.09375 -3.328125q-0.875 -1.421875 -2.328125 -2.203125q-1.4375 -0.796875 -3.203125 -0.796875q-1.734375 0 -3.15625 0.796875q-1.40625 0.78125 -2.296875 2.203125q-0.890625 1.40625 -1.078125 3.328125zm37.97081 15.078125q-2.875 0 -5.140625 -1.296875q-2.25 -1.296875 -3.546875 -3.5625l0 4.375l-5.625 0l0 -35.046875l6.4375 0l0 14.3125q1.34375 -2.25 3.53125 -3.546875q2.1875 -1.296875 5.109375 -1.296875q2.453125 0 4.46875 1.03125q2.015625 1.03125 3.46875 2.859375q1.46875 1.8125 2.25 4.171875q0.796875 2.34375 0.796875 5.03125q0 2.6875 -0.890625 5.046875q-0.875 2.34375 -2.46875 4.15625q-1.578125 1.796875 -3.71875 2.78125q-2.125 0.984375 -4.671875 0.984375zm-1.78125 -5.46875q1.53125 0 2.796875 -0.59375q1.28125 -0.609375 2.21875 -1.609375q0.9375 -1.015625 1.4375 -2.375q0.515625 -1.375 0.515625 -2.875q0 -2.0625 -0.84375 -3.8125q-0.84375 -1.75 -2.3125 -2.796875q-1.453125 -1.0625 -3.421875 -1.0625q-1.390625 0 -2.671875 0.65625q-1.265625 0.640625 -2.25 1.75q-0.984375 1.09375 -1.5625 2.484375l0 6.0q0.28125 0.96875 0.921875 1.734375q0.65625 0.765625 1.515625 1.328125q0.875 0.546875 1.8125 0.859375q0.9375 0.3125 1.84375 0.3125zm38.686462 5.46875q-3.21875 0 -6.140625 -1.046875q-2.921875 -1.0625 -5.03125 -3.140625l2.296875 -4.171875q2.25 1.828125 4.4375 2.703125q2.1875 0.859375 4.203125 0.859375q1.875 0 3.0 -0.671875q1.125 -0.671875 1.125 -2.03125q0 -0.90625 -0.625 -1.40625q-0.625 -0.5 -1.796875 -0.890625q-1.171875 -0.390625 -2.859375 -0.859375q-2.78125 -0.921875 -4.65625 -1.78125q-1.875 -0.859375 -2.8125 -2.171875q-0.921875 -1.328125 -0.921875 -3.390625q0 -2.5 1.265625 -4.296875q1.265625 -1.796875 3.546875 -2.796875q2.28125 -1.015625 5.359375 -1.015625q2.6875 0 5.078125 0.84375q2.4062653 0.828125 4.3750153 2.703125l-2.59375 4.078125q-1.9218903 -1.484375 -3.6562653 -2.171875q-1.71875 -0.703125 -3.5 -0.703125q-1.0 0 -1.890625 0.234375q-0.890625 0.234375 -1.4375 0.796875q-0.546875 0.546875 -0.546875 1.5625q0 0.90625 0.5 1.40625q0.5 0.5 1.53125 0.890625q1.03125 0.390625 2.515625 0.859375q3.03125 0.875 5.109375 1.78125q2.0937653 0.90625 3.1406403 2.234375q1.0625 1.3125 1.0625 3.625q0 3.734375 -2.734375 5.859375q-2.7343903 2.109375 -7.3437653 2.109375zm26.118301 0q-3.03125 0 -5.484375 -1.03125q-2.4375 -1.03125 -4.171875 -2.828125q-1.71875 -1.8125 -2.65625 -4.140625q-0.9375 -2.328125 -0.9375 -4.921875q0 -3.59375 1.609375 -6.5625q1.609375 -2.984375 4.609375 -4.78125q3.0 -1.796875 7.078125 -1.796875q4.125 0 7.046875 1.796875q2.9375 1.796875 4.5 4.75q1.5625 2.953125 1.5625 6.359375q0 0.578125 -0.0625 1.1875q-0.046875 0.59375 -0.09375 0.96875l-19.4375 0q0.203125 1.921875 1.125 3.359375q0.9375 1.4375 2.40625 2.1875q1.46875 0.75 3.140625 0.75q1.921875 0 3.625 -0.9375q1.703125 -0.9375 2.328125 -2.46875l5.515625 1.53125q-0.90625 1.921875 -2.609375 3.40625q-1.703125 1.484375 -4.015625 2.328125q-2.296875 0.84375 -5.078125 0.84375zm-6.578125 -15.078125l13.15625 0q-0.203125 -1.921875 -1.09375 -3.328125q-0.875 -1.421875 -2.328125 -2.203125q-1.4375 -0.796875 -3.203125 -0.796875q-1.734375 0 -3.15625 0.796875q-1.40625 0.78125 -2.296875 2.203125q-0.890625 1.40625 -1.078125 3.328125zm38.6427 -4.984375q-2.9375 0 -5.234375 1.125q-2.296875 1.125 -3.3125 3.234375l0 15.21875l-6.4375 0l0 -25.15625l5.90625 0l0 5.375q1.34375 -2.59375 3.40625 -4.078125q2.0625 -1.484375 4.375 -1.625q0.53125 0 0.8125 0q0.296875 0 0.484375 0.046875l0 5.859375zm10.372894 19.578125l-9.265625 -25.15625l6.671875 0l6.328125 19.296875l6.390625 -19.296875l6.09375 0l-9.21875 25.15625l-7.0 0zm19.618805 0l0 -25.15625l6.4375 0l0 25.15625l-6.4375 0zm0 -28.65625l0 -6.390625l6.4375 0l0 6.390625l-6.4375 0zm23.95877 29.140625q-3.078125 0 -5.53125 -1.03125q-2.4375 -1.03125 -4.171875 -2.875q-1.71875 -1.859375 -2.65625 -4.203125q-0.9375 -2.359375 -0.9375 -4.953125q0 -3.546875 1.609375 -6.5q1.609375 -2.953125 4.578125 -4.71875q2.984375 -1.78125 7.0625 -1.78125q4.078125 0 7.0 1.78125q2.9375 1.765625 4.375 4.640625l-6.28125 1.921875q-0.828125 -1.390625 -2.171875 -2.125q-1.34375 -0.75 -2.96875 -0.75q-1.828125 0 -3.34375 0.9375q-1.5 0.9375 -2.375 2.640625q-0.859375 1.703125 -0.859375 3.953125q0 2.203125 0.890625 3.921875q0.890625 1.703125 2.375 2.6875q1.484375 0.984375 3.3125 0.984375q1.15625 0 2.1875 -0.390625q1.03125 -0.390625 1.84375 -1.0625q0.8125 -0.671875 1.203125 -1.53125l6.28125 1.921875q-0.859375 1.875 -2.515625 3.359375q-1.65625 1.484375 -3.890625 2.328125q-2.234375 0.84375 -5.015625 0.84375zm26.785187 0q-3.03125 0 -5.484375 -1.03125q-2.4375 -1.03125 -4.171875 -2.828125q-1.71875 -1.8125 -2.65625 -4.140625q-0.9375 -2.328125 -0.9375 -4.921875q0 -3.59375 1.609375 -6.5625q1.609375 -2.984375 4.609375 -4.78125q3.0 -1.796875 7.078125 -1.796875q4.125 0 7.046875 1.796875q2.9375 1.796875 4.5 4.75q1.5625 2.953125 1.5625 6.359375q0 0.578125 -0.0625 1.1875q-0.046875 0.59375 -0.09375 0.96875l-19.4375 0q0.203125 1.921875 1.125 3.359375q0.9375 1.4375 2.40625 2.1875q1.46875 0.75 3.140625 0.75q1.921875 0 3.625 -0.9375q1.703125 -0.9375 2.328125 -2.46875l5.515625 1.53125q-0.90625 1.921875 -2.609375 3.40625q-1.703125 1.484375 -4.015625 2.328125q-2.296875 0.84375 -5.078125 0.84375zm-6.578125 -15.078125l13.15625 0q-0.203125 -1.921875 -1.09375 -3.328125q-0.875 -1.421875 -2.328125 -2.203125q-1.4375 -0.796875 -3.203125 -0.796875q-1.734375 0 -3.15625 0.796875q-1.40625 0.78125 -2.296875 2.203125q-0.890625 1.40625 -1.078125 3.328125zm65.037476 -10.5625l6.09375 0l-10.5 25.15625l-5.375 0l-4.234375 -10.796875l-4.125 10.796875l-5.421875 0l-10.46875 -25.15625l6.046875 0l7.484375 19.015625l2.9375 -8.21875l-4.375 -10.75l5.328125 0l2.59375 7.6875l2.640625 -7.6875l5.328125 0l-4.359375 10.75l2.96875 8.21875l7.4375 -19.015625zm9.06897 25.15625l0 -25.15625l6.4375 0l0 25.15625l-6.4375 0zm0 -28.65625l0 -6.390625l6.4375 0l0 6.390625l-6.4375 0zm27.318146 27.359375q-0.8125 0.34375 -1.96875 0.78125q-1.15625 0.421875 -2.484375 0.6875q-1.3125 0.265625 -2.65625 0.265625q-1.765625 0 -3.265625 -0.625q-1.484375 -0.625 -2.375 -1.984375q-0.875 -1.375 -0.875 -3.59375l0 -14.4375l-3.3125 0l0 -4.953125l3.3125 0l0 -8.15625l6.421875 0l0 8.15625l5.28125 0l0 4.953125l-5.28125 0l0 12.28125q0.046875 1.296875 0.71875 1.875q0.671875 0.578125 1.6875 0.578125q1.0 0 1.953125 -0.328125q0.96875 -0.34375 1.546875 -0.59375l1.296875 5.09375zm26.728912 1.296875l-6.421875 0l0 -14.109375q0 -2.9375 -1.140625 -4.375q-1.125 -1.4375 -3.09375 -1.4375q-1.140625 0 -2.4375 0.671875q-1.296875 0.671875 -2.328125 1.859375q-1.03125 1.171875 -1.515625 2.703125l0 14.6875l-6.4375 0l0 -35.046875l6.4375 0l0 14.546875q1.390625 -2.390625 3.78125 -3.734375q2.40625 -1.34375 5.25 -1.34375q2.4375 0 3.96875 0.84375q1.546875 0.828125 2.40625 2.25q0.859375 1.40625 1.1875 3.171875q0.34375 1.75 0.34375 3.609375l0 15.703125zm38.074615 -25.15625q-0.34375 -0.328125 -1.234375 -0.90625q-0.875 -0.578125 -2.15625 -1.109375q-1.265625 -0.53125 -2.765625 -0.9375q-1.484375 -0.40625 -3.015625 -0.40625q-2.6875 0 -4.0625 1.015625q-1.359375 1.0 -1.359375 2.828125q0 1.390625 0.859375 2.21875q0.859375 0.8125 2.59375 1.390625q1.734375 0.5625 4.328125 1.234375q3.359375 0.8125 5.828125 2.0q2.46875 1.171875 3.78125 3.078125q1.328125 1.890625 1.328125 5.0q0 2.734375 -1.015625 4.6875q-1.0 1.9375 -2.78125 3.140625q-1.765625 1.203125 -4.03125 1.765625q-2.25 0.546875 -4.796875 0.546875q-2.546875 0 -5.09375 -0.53125q-2.53125 -0.53125 -4.890625 -1.515625q-2.34375 -0.984375 -4.3125 -2.375l2.921875 -5.71875q0.4375 0.4375 1.53125 1.140625q1.109375 0.6875 2.6875 1.390625q1.59375 0.6875 3.453125 1.171875q1.875 0.484375 3.796875 0.484375q2.6875 0 4.078125 -0.90625q1.390625 -0.921875 1.390625 -2.609375q0 -1.53125 -1.109375 -2.390625q-1.09375 -0.875 -3.0625 -1.515625q-1.96875 -0.640625 -4.65625 -1.421875q-3.21875 -0.90625 -5.375 -2.03125q-2.15625 -1.125 -3.21875 -2.859375q-1.046875 -1.734375 -1.046875 -4.3125q0 -3.515625 1.65625 -5.890625q1.65625 -2.375 4.484375 -3.59375q2.828125 -1.21875 6.28125 -1.21875q2.40625 0 4.53125 0.53125q2.140625 0.515625 4.015625 1.390625q1.875 0.859375 3.359375 1.859375l-2.921875 5.375zm23.420654 25.640625q-2.921875 0 -5.15625 -1.3125q-2.234375 -1.328125 -3.484375 -3.59375l0 14.640625l-6.4375 0l0 -35.375l5.625 0l0 4.328125q1.4375 -2.21875 3.640625 -3.484375q2.21875 -1.265625 5.046875 -1.265625q2.546875 0 4.671875 1.015625q2.140625 1.0 3.71875 2.796875q1.59375 1.796875 2.46875 4.125q0.890625 2.328125 0.890625 5.015625q0 3.65625 -1.421875 6.625q-1.40625 2.96875 -3.875 4.734375q-2.46875 1.75 -5.6875 1.75zm-2.15625 -5.46875q1.484375 0 2.6875 -0.625q1.203125 -0.625 2.078125 -1.703125q0.890625 -1.09375 1.34375 -2.453125q0.46875 -1.375 0.46875 -2.859375q0 -1.578125 -0.515625 -2.921875q-0.5 -1.34375 -1.46875 -2.375q-0.953125 -1.03125 -2.234375 -1.609375q-1.265625 -0.578125 -2.75 -0.578125q-0.90625 0 -1.84375 0.3125q-0.9375 0.3125 -1.8125 0.890625q-0.859375 0.5625 -1.515625 1.34375q-0.640625 0.765625 -0.921875 1.671875l0 5.90625q0.578125 1.390625 1.5625 2.546875q0.984375 1.15625 2.28125 1.8125q1.296875 0.640625 2.640625 0.640625zm32.494568 -14.59375q-2.9375 0 -5.234375 1.125q-2.296875 1.125 -3.3125 3.234375l0 15.21875l-6.4375 0l0 -25.15625l5.90625 0l0 5.375q1.34375 -2.59375 3.40625 -4.078125q2.0625 -1.484375 4.375 -1.625q0.53125 0 0.8125 0q0.296875 0 0.484375 0.046875l0 5.859375zm3.5916748 19.578125l0 -25.15625l6.4375 0l0 25.15625l-6.4375 0zm0 -28.65625l0 -6.390625l6.4375 0l0 6.390625l-6.4375 0zm35.61499 28.65625l-6.421875 0l0 -14.109375q0 -3.03125 -1.0625 -4.421875q-1.046875 -1.390625 -2.921875 -1.390625q-1.296875 0 -2.625 0.671875q-1.3125 0.671875 -2.375 1.859375q-1.046875 1.171875 -1.53125 2.703125l0 14.6875l-6.4375 0l0 -25.15625l5.8125 0l0 4.65625q0.96875 -1.625 2.453125 -2.75q1.484375 -1.140625 3.421875 -1.734375q1.953125 -0.59375 4.109375 -0.59375q2.359375 0 3.859375 0.84375q1.515625 0.828125 2.3125 2.25q0.796875 1.40625 1.09375 3.1875q0.3125 1.78125 0.3125 3.59375l0 15.703125zm15.460815 0.140625q-2.5 0 -4.59375 -0.984375q-2.078125 -0.984375 -3.59375 -2.75q-1.5 -1.78125 -2.328125 -4.078125q-0.8125 -2.3125 -0.8125 -4.90625q0 -2.734375 0.859375 -5.078125q0.875 -2.359375 2.421875 -4.15625q1.5625 -1.796875 3.703125 -2.78125q2.140625 -0.984375 4.734375 -0.984375q2.921875 0 5.125 1.328125q2.21875 1.3125 3.65625 3.515625l0 -4.421875l5.609375 0l0 23.953125q0 3.75 -1.796875 6.40625q-1.796875 2.671875 -4.96875 4.078125q-3.171875 1.421875 -7.203125 1.421875q-4.078125 0 -6.90625 -1.375q-2.828125 -1.359375 -4.84375 -3.859375l3.5 -3.40625q1.4375 1.78125 3.625 2.78125q2.1875 1.015625 4.625 1.015625q2.0625 0 3.765625 -0.75q1.71875 -0.734375 2.75 -2.296875q1.03125 -1.5625 1.03125 -4.015625l0 -3.171875q-1.25 2.171875 -3.53125 3.34375q-2.28125 1.171875 -4.828125 1.171875zm2.15625 -5.125q1.0625 0 2.015625 -0.328125q0.96875 -0.34375 1.78125 -0.921875q0.8125 -0.578125 1.4375 -1.375q0.625 -0.796875 0.96875 -1.609375l0 -6.0q-0.578125 -1.484375 -1.609375 -2.578125q-1.03125 -1.109375 -2.3125 -1.703125q-1.265625 -0.609375 -2.65625 -0.609375q-1.484375 0 -2.6875 0.625q-1.203125 0.625 -2.078125 1.75q-0.859375 1.125 -1.3125 2.5q-0.453125 1.359375 -0.453125 2.84375q0 1.546875 0.53125 2.890625q0.53125 1.34375 1.453125 2.359375q0.9375 1.0 2.203125 1.578125q1.28125 0.578125 2.71875 0.578125zm58.045837 -3.796875q0 2.875 -1.5 4.828125q-1.484375 1.9375 -4.015625 2.953125q-2.515625 1.0 -5.484375 1.0l-16.46875 0l0 -34.078125l18.25 0q2.390625 0 4.140625 1.28125q1.765625 1.265625 2.6875 3.265625q0.9375 1.984375 0.9375 4.140625q0 2.453125 -1.25 4.65625q-1.234375 2.203125 -3.640625 3.265625q2.921875 0.859375 4.625 3.125q1.71875 2.25 1.71875 5.5625zm-6.671875 -1.25q0 -1.296875 -0.53125 -2.328125q-0.53125 -1.03125 -1.421875 -1.625q-0.890625 -0.609375 -2.03125 -0.609375l-10.1875 0l0 8.984375l9.84375 0q1.203125 0 2.1875 -0.59375q0.984375 -0.609375 1.5625 -1.609375q0.578125 -1.015625 0.578125 -2.21875zm-14.171875 -18.390625l0 8.59375l8.84375 0q1.09375 0 2.0 -0.515625q0.921875 -0.53125 1.46875 -1.484375q0.5625 -0.96875 0.5625 -2.3125q0 -1.296875 -0.515625 -2.25q-0.5 -0.96875 -1.34375 -1.5q-0.828125 -0.53125 -1.890625 -0.53125l-9.125 0zm37.015076 28.90625q-3.078125 0 -5.53125 -1.03125q-2.4375 -1.03125 -4.140625 -2.859375q-1.703125 -1.828125 -2.625 -4.171875q-0.90625 -2.359375 -0.90625 -4.953125q0 -2.640625 0.90625 -4.984375q0.921875 -2.359375 2.625 -4.171875q1.703125 -1.828125 4.140625 -2.859375q2.453125 -1.03125 5.53125 -1.03125q3.0625 0 5.484375 1.03125q2.4375 1.03125 4.15625 2.859375q1.734375 1.8125 2.625 4.171875q0.890625 2.34375 0.890625 4.984375q0 2.59375 -0.890625 4.953125q-0.890625 2.34375 -2.59375 4.171875q-1.703125 1.828125 -4.15625 2.859375q-2.453125 1.03125 -5.515625 1.03125zm-6.578125 -13.015625q0 2.21875 0.859375 3.921875q0.875 1.703125 2.359375 2.671875q1.484375 0.953125 3.359375 0.953125q1.828125 0 3.3125 -0.984375q1.484375 -0.984375 2.375 -2.6875q0.890625 -1.71875 0.890625 -3.921875q0 -2.15625 -0.890625 -3.875q-0.890625 -1.734375 -2.375 -2.6875q-1.484375 -0.96875 -3.3125 -0.96875q-1.875 0 -3.359375 0.984375q-1.484375 0.984375 -2.359375 2.6875q-0.859375 1.703125 -0.859375 3.90625zm35.6662 13.015625q-3.078125 0 -5.53125 -1.03125q-2.4375 -1.03125 -4.140625 -2.859375q-1.703125 -1.828125 -2.625 -4.171875q-0.90625 -2.359375 -0.90625 -4.953125q0 -2.640625 0.90625 -4.984375q0.921875 -2.359375 2.625 -4.171875q1.703125 -1.828125 4.140625 -2.859375q2.453125 -1.03125 5.53125 -1.03125q3.0625 0 5.484375 1.03125q2.4375 1.03125 4.15625 2.859375q1.734375 1.8125 2.625 4.171875q0.890625 2.34375 0.890625 4.984375q0 2.59375 -0.890625 4.953125q-0.890625 2.34375 -2.59375 4.171875q-1.703125 1.828125 -4.15625 2.859375q-2.453125 1.03125 -5.515625 1.03125zm-6.578125 -13.015625q0 2.21875 0.859375 3.921875q0.875 1.703125 2.359375 2.671875q1.484375 0.953125 3.359375 0.953125q1.828125 0 3.3125 -0.984375q1.484375 -0.984375 2.375 -2.6875q0.890625 -1.71875 0.890625 -3.921875q0 -2.15625 -0.890625 -3.875q-0.890625 -1.734375 -2.375 -2.6875q-1.484375 -0.96875 -3.3125 -0.96875q-1.875 0 -3.359375 0.984375q-1.484375 0.984375 -2.359375 2.6875q-0.859375 1.703125 -0.859375 3.90625zm38.73529 11.234375q-0.8125 0.34375 -1.96875 0.78125q-1.15625 0.421875 -2.484375 0.6875q-1.3125 0.265625 -2.65625 0.265625q-1.765625 0 -3.265625 -0.625q-1.484375 -0.625 -2.375 -1.984375q-0.875 -1.375 -0.875 -3.59375l0 -14.4375l-3.3125 0l0 -4.953125l3.3125 0l0 -8.15625l6.421875 0l0 8.15625l5.28125 0l0 4.953125l-5.28125 0l0 12.28125q0.046875 1.296875 0.71875 1.875q0.671875 0.578125 1.6875 0.578125q1.0 0 1.953125 -0.328125q0.96875 -0.34375 1.546875 -0.59375l1.296875 5.09375z" fill-rule="nonzero"/></g></svg>