<svg version="1.1" viewBox="0.0 0.0 960.0 540.0" fill="none" stroke="none" stroke-linecap="square" stroke-miterlimit="10" xmlns:xlink="http://www.w3.org/1999/xlink" xmlns="http://www.w3.org/2000/svg"><clipPath id="gaeb2c410ad_0_427.0"><path d="m0 0l960.0 0l0 540.0l-960.0 0l0 -540.0z" clip-rule="nonzero"/></clipPath><g clip-path="url(#gaeb2c410ad_0_427.0)"><path fill="#1a9988" d="m0 0l960.0 0l0 540.0l-960.0 0z" fill-rule="evenodd"/><path fill="#ffffff" d="m126.33025 129.87735l0 -4.8111496l39.145332 0l0 4.8111496z" fill-rule="evenodd"/><path fill="#ffffff" d="m87.18024 129.87735l0 -4.8111496l39.476326 0l0 4.8111496z" fill-rule="evenodd"/><path fill="#000000" fill-opacity="0.0" d="m76.58268 138.83989l807.1811 0l0 159.43309l-807.1811 0z" fill-rule="evenodd"/><path fill="#ffffff" d="m89.129555 193.91989l0 -34.03125l6.625 0l0 16.171875l14.3125 -16.21875l7.296875 0l-13.0625 15.125l13.875 18.953125l-7.484375 0l-10.609375 -14.6875l-4.328125 4.515625l0 10.171875l-6.625 0zm30.436691 -9.40625l0 -15.75l6.4375 0l0 14.359375q0 2.875 1.046875 4.34375q1.0624924 1.46875 3.1249924 1.46875q1.25 0 2.46875 -0.5q1.21875 -0.515625 2.25 -1.515625q1.046875 -1.015625 1.765625 -2.546875l0 -15.609375l6.421875 0l0 17.953125q0 1.015625 0.359375 1.453125q0.359375 0.421875 1.1875 0.515625l0 5.234375q-0.96875 0.140625 -1.625 0.203125q-0.640625 0.078125 -1.171875 0.078125q-1.71875 0 -2.796875 -0.78125q-1.078125 -0.796875 -1.28125 -2.1875l-0.140625 -2.015625q-1.671875 2.546875 -4.3125 3.875q-2.640625 1.3125 -5.8124924 1.3125q-3.890625 0 -5.90625 -2.515625q-2.015625 -2.53125 -2.015625 -7.375zm44.21093 9.890625q-2.875 0 -5.140625 -1.296875q-2.25 -1.296875 -3.546875 -3.5625l0 4.375l-5.625 0l0 -35.046875l6.4375 0l0 14.3125q1.34375 -2.25 3.53125 -3.546875q2.1875 -1.296875 5.109375 -1.296875q2.453125 0 4.46875 1.03125q2.015625 1.03125 3.46875 2.859375q1.46875 1.8125 2.25 4.171875q0.796875 2.34375 0.796875 5.03125q0 2.6875 -0.890625 5.046875q-0.875 2.34375 -2.46875 4.15625q-1.578125 1.796875 -3.71875 2.78125q-2.125 0.984375 -4.671875 0.984375zm-1.78125 -5.46875q1.53125 0 2.796875 -0.59375q1.28125 -0.609375 2.21875 -1.609375q0.9375 -1.015625 1.4375 -2.375q0.515625 -1.375 0.515625 -2.875q0 -2.0625 -0.84375 -3.8125q-0.84375 -1.75 -2.3125 -2.796875q-1.453125 -1.0625 -3.421875 -1.0625q-1.390625 0 -2.671875 0.65625q-1.265625 0.640625 -2.25 1.75q-0.984375 1.09375 -1.5625 2.484375l0 6.0q0.28125 0.96875 0.921875 1.734375q0.65625 0.765625 1.515625 1.328125q0.875 0.546875 1.8125 0.859375q0.9375 0.3125 1.84375 0.3125zm29.572693 5.46875q-3.03125 0 -5.484375 -1.03125q-2.4375 -1.03125 -4.171875 -2.828125q-1.71875 -1.8125 -2.65625 -4.140625q-0.9375 -2.328125 -0.9375 -4.921875q0 -3.59375 1.609375 -6.5625q1.609375 -2.984375 4.609375 -4.78125q3.0 -1.796875 7.078125 -1.796875q4.125 0 7.046875 1.796875q2.9375 1.796875 4.5 4.75q1.5625 2.953125 1.5625 6.359375q0 0.578125 -0.0625 1.1875q-0.046875 0.59375 -0.09375 0.96875l-19.4375 0q0.203125 1.921875 1.125 3.359375q0.9375 1.4375 2.40625 2.1875q1.46875 0.75 3.140625 0.75q1.921875 0 3.625 -0.9375q1.703125 -0.9375 2.328125 -2.46875l5.515625 1.53125q-0.90625 1.921875 -2.609375 3.40625q-1.703125 1.484375 -4.015625 2.328125q-2.296875 0.84375 -5.078125 0.84375zm-6.578125 -15.078125l13.15625 0q-0.203125 -1.921875 -1.09375 -3.328125q-0.875 -1.421875 -2.328125 -2.203125q-1.4375 -0.796875 -3.203125 -0.796875q-1.734375 0 -3.15625 0.796875q-1.40625 0.78125 -2.296875 2.203125q-0.890625 1.40625 -1.078125 3.328125zm38.642685 -4.984375q-2.9375 0 -5.234375 1.125q-2.296875 1.125 -3.3125 3.234375l0 15.21875l-6.4375 0l0 -25.15625l5.90625 0l0 5.375q1.34375 -2.59375 3.40625 -4.078125q2.0625 -1.484375 4.375 -1.625q0.53125 0 0.8125 0q0.296875 0 0.484375 0.046875l0 5.859375zm26.96666 19.578125l-6.421875 0l0 -14.109375q0 -3.03125 -1.0625 -4.421875q-1.046875 -1.390625 -2.921875 -1.390625q-1.296875 0 -2.625 0.671875q-1.3125 0.671875 -2.375 1.859375q-1.046875 1.171875 -1.53125 2.703125l0 14.6875l-6.4375 0l0 -25.15625l5.8125 0l0 4.65625q0.96875 -1.625 2.453125 -2.75q1.484375 -1.140625 3.421875 -1.734375q1.953125 -0.59375 4.109375 -0.59375q2.359375 0 3.859375 0.84375q1.515625 0.828125 2.3125 2.25q0.796875 1.40625 1.09375 3.1875q0.3125 1.78125 0.3125 3.59375l0 15.703125zm17.288956 0.484375q-3.03125 0 -5.484375 -1.03125q-2.4375 -1.03125 -4.171875 -2.828125q-1.71875 -1.8125 -2.6562653 -4.140625q-0.9375 -2.328125 -0.9375 -4.921875q0 -3.59375 1.6093903 -6.5625q1.609375 -2.984375 4.609375 -4.78125q3.0 -1.796875 7.078125 -1.796875q4.125 0 7.046875 1.796875q2.9375 1.796875 4.5 4.75q1.5625 2.953125 1.5625 6.359375q0 0.578125 -0.0625 1.1875q-0.046875 0.59375 -0.09375 0.96875l-19.4375 0q0.203125 1.921875 1.125 3.359375q0.9375 1.4375 2.40625 2.1875q1.46875 0.75 3.140625 0.75q1.921875 0 3.625 -0.9375q1.703125 -0.9375 2.328125 -2.46875l5.515625 1.53125q-0.90625 1.921875 -2.609375 3.40625q-1.703125 1.484375 -4.015625 2.328125q-2.296875 0.84375 -5.078125 0.84375zm-6.578125 -15.078125l13.15625 0q-0.203125 -1.921875 -1.09375 -3.328125q-0.875 -1.421875 -2.328125 -2.203125q-1.4375 -0.796875 -3.203125 -0.796875q-1.734375 0 -3.15625 0.796875q-1.40625 0.78125 -2.296875 2.203125q-0.890625 1.40625 -1.078125 3.328125zm38.49643 13.296875q-0.8125 0.34375 -1.96875 0.78125q-1.15625 0.421875 -2.484375 0.6875q-1.3125 0.265625 -2.65625 0.265625q-1.765625 0 -3.265625 -0.625q-1.484375 -0.625 -2.375 -1.984375q-0.875 -1.375 -0.875 -3.59375l0 -14.4375l-3.3125 0l0 -4.953125l3.3125 0l0 -8.15625l6.421875 0l0 8.15625l5.28125 0l0 4.953125l-5.28125 0l0 12.28125q0.046875 1.296875 0.71875 1.875q0.671875 0.578125 1.6875 0.578125q1.0 0 1.953125 -0.328125q0.96875 -0.34375 1.546875 -0.59375l1.296875 5.09375zm14.689789 1.78125q-3.03125 0 -5.484375 -1.03125q-2.4375 -1.03125 -4.171875 -2.828125q-1.71875 -1.8125 -2.65625 -4.140625q-0.9375 -2.328125 -0.9375 -4.921875q0 -3.59375 1.609375 -6.5625q1.609375 -2.984375 4.609375 -4.78125q3.0 -1.796875 7.078125 -1.796875q4.125 0 7.046875 1.796875q2.9375 1.796875 4.5 4.75q1.5625 2.953125 1.5625 6.359375q0 0.578125 -0.0625 1.1875q-0.046875 0.59375 -0.09375 0.96875l-19.4375 0q0.203125 1.921875 1.125 3.359375q0.9375 1.4375 2.40625 2.1875q1.46875 0.75 3.140625 0.75q1.921875 0 3.625 -0.9375q1.703125 -0.9375 2.328125 -2.46875l5.515625 1.53125q-0.90625 1.921875 -2.609375 3.40625q-1.703125 1.484375 -4.015625 2.328125q-2.296875 0.84375 -5.078125 0.84375zm-6.578125 -15.078125l13.15625 0q-0.203125 -1.921875 -1.09375 -3.328125q-0.875 -1.421875 -2.328125 -2.203125q-1.4375 -0.796875 -3.203125 -0.796875q-1.734375 0 -3.15625 0.796875q-1.40625 0.78125 -2.296875 2.203125q-0.890625 1.40625 -1.078125 3.328125zm32.92392 15.078125q-3.21875 0 -6.140625 -1.046875q-2.921875 -1.0625 -5.03125 -3.140625l2.296875 -4.171875q2.25 1.828125 4.4375 2.703125q2.1875 0.859375 4.203125 0.859375q1.875 0 3.0 -0.671875q1.125 -0.671875 1.125 -2.03125q0 -0.90625 -0.625 -1.40625q-0.625 -0.5 -1.796875 -0.890625q-1.171875 -0.390625 -2.859375 -0.859375q-2.78125 -0.921875 -4.65625 -1.78125q-1.875 -0.859375 -2.8125 -2.171875q-0.921875 -1.328125 -0.921875 -3.390625q0 -2.5 1.265625 -4.296875q1.265625 -1.796875 3.546875 -2.796875q2.28125 -1.015625 5.359375 -1.015625q2.6875 0 5.078125 0.84375q2.40625 0.828125 4.375 2.703125l-2.59375 4.078125q-1.921875 -1.484375 -3.65625 -2.171875q-1.71875 -0.703125 -3.5 -0.703125q-1.0 0 -1.890625 0.234375q-0.890625 0.234375 -1.4375 0.796875q-0.546875 0.546875 -0.546875 1.5625q0 0.90625 0.5 1.40625q0.5 0.5 1.53125 0.890625q1.03125 0.390625 2.515625 0.859375q3.03125 0.875 5.109375 1.78125q2.09375 0.90625 3.140625 2.234375q1.0625 1.3125 1.0625 3.625q0 3.734375 -2.734375 5.859375q-2.734375 2.109375 -7.34375 2.109375z" fill-rule="nonzero"/></g></svg>